M48
; DRILL file {KiCad 7.0.10} date Wed 10 Jan 2024 04:19:00 PM CET
; FORMAT={-:-/ absolute / metric / decimal}
; #@! TF.CreationDate,2024-01-10T16:19:00+01:00
; #@! TF.GenerationSoftware,Kicad,Pcbnew,7.0.10
; #@! TF.FileFunction,MixedPlating,1,2
FMAT,2
METRIC
; #@! TA.AperFunction,Plated,PTH,ComponentDrill
T1C0.600
; #@! TA.AperFunction,Plated,PTH,ComponentDrill
T2C0.750
; #@! TA.AperFunction,Plated,PTH,ComponentDrill
T3C0.800
; #@! TA.AperFunction,Plated,PTH,ComponentDrill
T4C1.000
; #@! TA.AperFunction,Plated,PTH,ComponentDrill
T5C1.100
%
G90
G05
T1
X13.435Y10.9
X15.435Y10.9
T2
X33.513Y14.38
X33.543Y9.52
X33.543Y4.32
X34.783Y13.11
X34.813Y8.25
X34.813Y3.05
X36.053Y14.38
X36.083Y9.52
X36.083Y4.32
T3
X6.442Y6.5
X6.452Y3.4
X7.907Y11.5
X9.907Y11.5
X14.062Y6.5
X14.072Y3.4
X18.262Y18.2
X18.262Y13.2
X18.262Y10.51
X18.262Y2.89
X21.89Y14.6
X23.38Y17.9
X29.51Y14.6
X31.0Y17.9
T4
X3.262Y15.34
X3.262Y12.8
X3.262Y8.98
X3.262Y6.44
X3.262Y3.9
X22.65Y11.2
X22.65Y8.66
X22.65Y6.12
X22.65Y3.58
X25.19Y11.2
X25.19Y8.66
X25.19Y6.12
X25.19Y3.58
X28.834Y9.7
X28.862Y6.04
X28.862Y3.5
X39.928Y5.975
X39.928Y3.435
X40.028Y14.6
X40.128Y9.7
T5
X7.822Y16.755
X10.362Y16.755
X12.902Y16.755
M30
