G04 #@! TF.GenerationSoftware,KiCad,Pcbnew,7.0.10*
G04 #@! TF.CreationDate,2024-02-01T03:12:14+01:00*
G04 #@! TF.ProjectId,DeskLampCircuit,4465736b-4c61-46d7-9043-697263756974,rev?*
G04 #@! TF.SameCoordinates,PX13c6f1aPY32052d0*
G04 #@! TF.FileFunction,Copper,L2,Bot*
G04 #@! TF.FilePolarity,Positive*
%FSLAX46Y46*%
G04 Gerber Fmt 4.6, Leading zero omitted, Abs format (unit mm)*
G04 Created by KiCad (PCBNEW 7.0.10) date 2024-02-01 03:12:14*
%MOMM*%
%LPD*%
G01*
G04 APERTURE LIST*
G04 #@! TA.AperFunction,ComponentPad*
%ADD10R,1.700000X1.700000*%
G04 #@! TD*
G04 #@! TA.AperFunction,ComponentPad*
%ADD11O,1.700000X1.700000*%
G04 #@! TD*
G04 #@! TA.AperFunction,ComponentPad*
%ADD12C,1.600000*%
G04 #@! TD*
G04 #@! TA.AperFunction,ComponentPad*
%ADD13O,1.600000X1.600000*%
G04 #@! TD*
G04 #@! TA.AperFunction,ComponentPad*
%ADD14R,1.300000X1.300000*%
G04 #@! TD*
G04 #@! TA.AperFunction,ComponentPad*
%ADD15C,1.300000*%
G04 #@! TD*
G04 #@! TA.AperFunction,ComponentPad*
%ADD16R,1.200000X1.200000*%
G04 #@! TD*
G04 #@! TA.AperFunction,ComponentPad*
%ADD17C,1.200000*%
G04 #@! TD*
G04 #@! TA.AperFunction,ComponentPad*
%ADD18R,1.905000X2.000000*%
G04 #@! TD*
G04 #@! TA.AperFunction,ComponentPad*
%ADD19O,1.905000X2.000000*%
G04 #@! TD*
G04 #@! TA.AperFunction,ComponentPad*
%ADD20R,1.600000X1.600000*%
G04 #@! TD*
G04 #@! TA.AperFunction,Conductor*
%ADD21C,0.500000*%
G04 #@! TD*
G04 APERTURE END LIST*
D10*
G04 #@! TO.P,J1,1,Pin_1*
G04 #@! TO.N,touch*
X20160000Y2960000D03*
D11*
G04 #@! TO.P,J1,2,Pin_2*
G04 #@! TO.N,GND*
X20160000Y5500000D03*
G04 #@! TO.P,J1,3,Pin_3*
G04 #@! TO.N,+3.3V*
X22700000Y2960000D03*
G04 #@! TO.P,J1,4,Pin_4*
G04 #@! TO.N,blue*
X22700000Y5500000D03*
G04 #@! TO.P,J1,5,Pin_5*
G04 #@! TO.N,unconnected-(J1-Pin_5-Pad5)*
X25240000Y2960000D03*
G04 #@! TO.P,J1,6,Pin_6*
G04 #@! TO.N,green*
X25240000Y5500000D03*
G04 #@! TO.P,J1,7,Pin_7*
G04 #@! TO.N,+3.3V*
X27780000Y2960000D03*
G04 #@! TO.P,J1,8,Pin_8*
G04 #@! TO.N,red*
X27780000Y5500000D03*
G04 #@! TD*
D12*
G04 #@! TO.P,R4,1*
G04 #@! TO.N,Net-(Q2-B)*
X24300000Y16400000D03*
D13*
G04 #@! TO.P,R4,2*
G04 #@! TO.N,green*
X24300000Y8780000D03*
G04 #@! TD*
D12*
G04 #@! TO.P,R2,1*
G04 #@! TO.N,Net-(U1-ADJ)*
X5942182Y5800000D03*
D13*
G04 #@! TO.P,R2,2*
G04 #@! TO.N,GND*
X13562182Y5800000D03*
G04 #@! TD*
D10*
G04 #@! TO.P,J9,1,Pin_1*
G04 #@! TO.N,+3.3V*
X17700000Y9400000D03*
G04 #@! TD*
D12*
G04 #@! TO.P,R3,1*
G04 #@! TO.N,red*
X27300000Y8800000D03*
D13*
G04 #@! TO.P,R3,2*
G04 #@! TO.N,Net-(Q1-B)*
X27300000Y16420000D03*
G04 #@! TD*
D10*
G04 #@! TO.P,J6,1,Pin_1*
G04 #@! TO.N,Net-(J6-Pin_1)*
X37500000Y14400000D03*
G04 #@! TD*
D14*
G04 #@! TO.P,Q3,1,C*
G04 #@! TO.N,Net-(J6-Pin_1)*
X33000000Y14400000D03*
D15*
G04 #@! TO.P,Q3,2,B*
G04 #@! TO.N,Net-(Q3-B)*
X31730000Y15670000D03*
G04 #@! TO.P,Q3,3,E*
G04 #@! TO.N,GND*
X33000000Y16940000D03*
G04 #@! TD*
D16*
G04 #@! TO.P,C3,1*
G04 #@! TO.N,+3.3V*
X13600000Y11800000D03*
D17*
G04 #@! TO.P,C3,2*
G04 #@! TO.N,GND*
X13600000Y9800000D03*
G04 #@! TD*
D12*
G04 #@! TO.P,C1,1*
G04 #@! TO.N,VCC*
X17700000Y12600000D03*
G04 #@! TO.P,C1,2*
G04 #@! TO.N,GND*
X17700000Y17600000D03*
G04 #@! TD*
D14*
G04 #@! TO.P,Q2,1,C*
G04 #@! TO.N,Net-(J8-Pin_1)*
X33000000Y3030000D03*
D15*
G04 #@! TO.P,Q2,2,B*
G04 #@! TO.N,Net-(Q2-B)*
X31730000Y4300000D03*
G04 #@! TO.P,Q2,3,E*
G04 #@! TO.N,GND*
X33000000Y5570000D03*
G04 #@! TD*
D18*
G04 #@! TO.P,U1,1,ADJ*
G04 #@! TO.N,Net-(U1-ADJ)*
X7322182Y15300000D03*
D19*
G04 #@! TO.P,U1,2,VO*
G04 #@! TO.N,+3.3V*
X9862182Y15300000D03*
G04 #@! TO.P,U1,3,VI*
G04 #@! TO.N,VCC*
X12402182Y15300000D03*
G04 #@! TD*
D20*
G04 #@! TO.P,C2,1*
G04 #@! TO.N,Net-(U1-ADJ)*
X7407070Y10800000D03*
D12*
G04 #@! TO.P,C2,2*
G04 #@! TO.N,GND*
X9407070Y10800000D03*
G04 #@! TD*
D10*
G04 #@! TO.P,J8,1,Pin_1*
G04 #@! TO.N,Net-(J8-Pin_1)*
X37500000Y3025000D03*
D11*
G04 #@! TO.P,J8,2,Pin_2*
G04 #@! TO.N,GND*
X37500000Y5565000D03*
G04 #@! TD*
D10*
G04 #@! TO.P,J5,1,Pin_1*
G04 #@! TO.N,+3.3V*
X2762182Y8280000D03*
D11*
G04 #@! TO.P,J5,2,Pin_2*
X2762182Y5740000D03*
G04 #@! TO.P,J5,3,Pin_3*
X2762182Y3200000D03*
G04 #@! TD*
D12*
G04 #@! TO.P,R1,1*
G04 #@! TO.N,+3.3V*
X13572182Y2700000D03*
D13*
G04 #@! TO.P,R1,2*
G04 #@! TO.N,Net-(U1-ADJ)*
X5952182Y2700000D03*
G04 #@! TD*
D10*
G04 #@! TO.P,J7,1,Pin_1*
G04 #@! TO.N,Net-(J7-Pin_1)*
X37500000Y9900000D03*
G04 #@! TD*
D14*
G04 #@! TO.P,Q1,1,C*
G04 #@! TO.N,Net-(J7-Pin_1)*
X33000000Y8630000D03*
D15*
G04 #@! TO.P,Q1,2,B*
G04 #@! TO.N,Net-(Q1-B)*
X31730000Y9900000D03*
G04 #@! TO.P,Q1,3,E*
G04 #@! TO.N,GND*
X33000000Y11170000D03*
G04 #@! TD*
D10*
G04 #@! TO.P,J2,1,Pin_1*
G04 #@! TO.N,GND*
X2762182Y12100000D03*
D11*
G04 #@! TO.P,J2,2,Pin_2*
G04 #@! TO.N,VCC*
X2762182Y14640000D03*
G04 #@! TD*
D12*
G04 #@! TO.P,R5,1*
G04 #@! TO.N,blue*
X21200000Y8780000D03*
D13*
G04 #@! TO.P,R5,2*
G04 #@! TO.N,Net-(Q3-B)*
X21200000Y16400000D03*
G04 #@! TD*
D10*
G04 #@! TO.P,J3,1,Pin_1*
G04 #@! TO.N,touch*
X16500000Y2960000D03*
D11*
G04 #@! TO.P,J3,2,Pin_2*
G04 #@! TO.N,GND*
X16500000Y5500000D03*
G04 #@! TD*
D21*
G04 #@! TO.N,Net-(U1-ADJ)*
X7322182Y16055000D02*
X7322182Y10884888D01*
X5942182Y9480000D02*
X7262182Y10800000D01*
X7262182Y10800000D02*
X7407070Y10800000D01*
X7322182Y10884888D02*
X7407070Y10800000D01*
X5952182Y5790000D02*
X5942182Y5800000D01*
X7442182Y10764888D02*
X7407070Y10800000D01*
X5952182Y2700000D02*
X5952182Y5790000D01*
X5942182Y5800000D02*
X5942182Y9480000D01*
G04 #@! TO.N,+3.3V*
X13600000Y11800000D02*
X13362182Y11800000D01*
X16000000Y9400000D02*
X13600000Y11800000D01*
X4962182Y1000000D02*
X2762182Y3200000D01*
X8950000Y17050000D02*
X6219682Y17050000D01*
X5300000Y10817818D02*
X2762182Y8280000D01*
X24400000Y1250000D02*
X26070000Y1250000D01*
X5300000Y16130318D02*
X5300000Y10817818D01*
X15022182Y1250000D02*
X21600000Y1250000D01*
X2762182Y5740000D02*
X2762182Y8280000D01*
X6219682Y17050000D02*
X5300000Y16130318D01*
X2762182Y3200000D02*
X2762182Y5740000D01*
X21600000Y1250000D02*
X22700000Y2350000D01*
X11872182Y1000000D02*
X4962182Y1000000D01*
X9862182Y15300000D02*
X9862182Y16137818D01*
X9862182Y16137818D02*
X8950000Y17050000D01*
X17700000Y9400000D02*
X16000000Y9400000D01*
X22700000Y2950000D02*
X24400000Y1250000D01*
X26070000Y1250000D02*
X27780000Y2960000D01*
X13572182Y2700000D02*
X11872182Y1000000D01*
X13572182Y2700000D02*
X15022182Y1250000D01*
X22700000Y2960000D02*
X22700000Y2950000D01*
X22700000Y2350000D02*
X22700000Y2960000D01*
X9862182Y15300000D02*
X10100000Y15300000D01*
X13362182Y11800000D02*
X9862182Y15300000D01*
G04 #@! TO.N,red*
X27780000Y5500000D02*
X27780000Y8320000D01*
X27780000Y8320000D02*
X27300000Y8800000D01*
G04 #@! TO.N,green*
X25240000Y7840000D02*
X24300000Y8780000D01*
X25240000Y5500000D02*
X25240000Y7840000D01*
G04 #@! TO.N,touch*
X20160000Y2960000D02*
X16500000Y2960000D01*
G04 #@! TO.N,GND*
X16500000Y5500000D02*
X13862182Y5500000D01*
X13600000Y9800000D02*
X13550000Y9750000D01*
X13862182Y5500000D02*
X13562182Y5800000D01*
X16500000Y5500000D02*
X20160000Y5500000D01*
X13562182Y9572600D02*
X13562182Y5800000D01*
X13550000Y9750000D02*
X10457070Y9750000D01*
X10007070Y10200000D02*
X9407070Y10800000D01*
X10457070Y9750000D02*
X9407070Y10800000D01*
G04 #@! TO.N,blue*
X22700000Y5500000D02*
X22700000Y7280000D01*
X22700000Y7280000D02*
X21200000Y8780000D01*
G04 #@! TO.N,VCC*
X10357182Y18100000D02*
X12402182Y16055000D01*
X4462182Y18100000D02*
X10357182Y18100000D01*
X15000000Y15300000D02*
X17700000Y12600000D01*
X2762182Y14640000D02*
X2762182Y16400000D01*
X2762182Y16400000D02*
X4462182Y18100000D01*
X12402182Y15300000D02*
X15000000Y15300000D01*
X12402182Y16055000D02*
X12402182Y15300000D01*
G04 #@! TO.N,Net-(Q1-B)*
X31700000Y9900000D02*
X27300000Y14300000D01*
X27300000Y14300000D02*
X27300000Y16420000D01*
G04 #@! TO.N,Net-(Q2-B)*
X31700000Y4300000D02*
X31800000Y4300000D01*
X29900000Y9668630D02*
X29900000Y6100000D01*
X24300000Y16400000D02*
X24300000Y15268630D01*
X29900000Y6100000D02*
X31700000Y4300000D01*
X24300000Y15268630D02*
X29900000Y9668630D01*
G04 #@! TO.N,Net-(Q3-B)*
X31630000Y15670000D02*
X29050000Y18250000D01*
X23050000Y18250000D02*
X21200000Y16400000D01*
X29050000Y18250000D02*
X23050000Y18250000D01*
G04 #@! TO.N,Net-(J6-Pin_1)*
X33000000Y14400000D02*
X37500000Y14400000D01*
G04 #@! TO.N,Net-(J7-Pin_1)*
X34270000Y9900000D02*
X33000000Y8630000D01*
X37500000Y9900000D02*
X34270000Y9900000D01*
G04 #@! TO.N,Net-(J8-Pin_1)*
X37500000Y3025000D02*
X33005000Y3025000D01*
X33005000Y3025000D02*
X33000000Y3030000D01*
G04 #@! TD*
G04 #@! TA.AperFunction,Conductor*
G04 #@! TO.N,GND*
G36*
X40142539Y19779815D02*
G01*
X40188294Y19727011D01*
X40199500Y19675500D01*
X40199500Y24500D01*
X40179815Y-42539D01*
X40127011Y-88294D01*
X40075500Y-99500D01*
X124500Y-99500D01*
X57461Y-79815D01*
X11706Y-27011D01*
X500Y24500D01*
X500Y3200000D01*
X1406523Y3200000D01*
X1427118Y2964597D01*
X1427120Y2964587D01*
X1488276Y2736345D01*
X1488278Y2736341D01*
X1488279Y2736337D01*
X1505224Y2699999D01*
X1588147Y2522170D01*
X1588149Y2522166D01*
X1680904Y2389699D01*
X1723687Y2328599D01*
X1890781Y2161505D01*
X1939878Y2127127D01*
X2084347Y2025968D01*
X2084349Y2025967D01*
X2084352Y2025965D01*
X2298519Y1926097D01*
X2298525Y1926096D01*
X2298526Y1926095D01*
X2315668Y1921502D01*
X2526774Y1864937D01*
X2715100Y1848461D01*
X2762181Y1844341D01*
X2762182Y1844341D01*
X2762183Y1844341D01*
X2797466Y1847429D01*
X2975195Y1862978D01*
X3043694Y1849212D01*
X3073683Y1827131D01*
X4386452Y514362D01*
X4398233Y500730D01*
X4412570Y481472D01*
X4450519Y449628D01*
X4458492Y442321D01*
X4462399Y438414D01*
X4462405Y438409D01*
X4486719Y419184D01*
X4489500Y416920D01*
X4517138Y393729D01*
X4546971Y368695D01*
X4553000Y364730D01*
X4552967Y364681D01*
X4559329Y360628D01*
X4559361Y360679D01*
X4565501Y356892D01*
X4565505Y356889D01*
X4604159Y338865D01*
X4633502Y325181D01*
X4636748Y323609D01*
X4703744Y289962D01*
X4710539Y287489D01*
X4710518Y287433D01*
X4717639Y284957D01*
X4717658Y285014D01*
X4724501Y282747D01*
X4724509Y282743D01*
X4798077Y267553D01*
X4801410Y266814D01*
X4874461Y249500D01*
X4874463Y249500D01*
X4874467Y249499D01*
X4881635Y248661D01*
X4881628Y248602D01*
X4889126Y247836D01*
X4889132Y247895D01*
X4896321Y247266D01*
X4896325Y247267D01*
X4896326Y247266D01*
X4971312Y249448D01*
X4974919Y249500D01*
X11808477Y249500D01*
X11826447Y248191D01*
X11850205Y244711D01*
X11899551Y249029D01*
X11910358Y249500D01*
X11915886Y249500D01*
X11915891Y249500D01*
X11946738Y253107D01*
X11950212Y253461D01*
X12024979Y260001D01*
X12024987Y260004D01*
X12032048Y261461D01*
X12032060Y261402D01*
X12039425Y263035D01*
X12039411Y263094D01*
X12046431Y264759D01*
X12046437Y264759D01*
X12116961Y290428D01*
X12120299Y291588D01*
X12191516Y315186D01*
X12191524Y315192D01*
X12198064Y318240D01*
X12198090Y318184D01*
X12204872Y321468D01*
X12204845Y321522D01*
X12211295Y324762D01*
X12211299Y324763D01*
X12274019Y366016D01*
X12276914Y367860D01*
X12340838Y407288D01*
X12340844Y407295D01*
X12346507Y411771D01*
X12346545Y411723D01*
X12352382Y416478D01*
X12352343Y416525D01*
X12357873Y421167D01*
X12357878Y421170D01*
X12409366Y475746D01*
X12411813Y478265D01*
X13306834Y1373286D01*
X13368155Y1406769D01*
X13405317Y1409131D01*
X13548548Y1396600D01*
X13572181Y1394532D01*
X13572182Y1394532D01*
X13572183Y1394532D01*
X13592244Y1396288D01*
X13739043Y1409131D01*
X13807541Y1395365D01*
X13837530Y1373284D01*
X14446449Y764366D01*
X14458230Y750734D01*
X14472571Y731471D01*
X14472572Y731470D01*
X14510520Y699628D01*
X14518501Y692314D01*
X14522402Y688412D01*
X14546725Y669180D01*
X14549486Y666931D01*
X14586484Y635886D01*
X14606971Y618695D01*
X14613000Y614730D01*
X14612967Y614681D01*
X14619325Y610631D01*
X14619357Y610681D01*
X14625499Y606893D01*
X14625501Y606892D01*
X14625505Y606889D01*
X14693497Y575184D01*
X14696742Y573612D01*
X14713520Y565186D01*
X14763749Y539960D01*
X14763751Y539960D01*
X14770543Y537487D01*
X14770522Y537430D01*
X14777637Y534957D01*
X14777657Y535014D01*
X14784505Y532746D01*
X14784510Y532743D01*
X14858034Y517563D01*
X14861468Y516801D01*
X14883996Y511461D01*
X14934456Y499501D01*
X14934457Y499501D01*
X14934461Y499500D01*
X14934465Y499500D01*
X14941634Y498662D01*
X14941626Y498603D01*
X14949127Y497836D01*
X14949133Y497895D01*
X14956322Y497266D01*
X14956326Y497267D01*
X14956327Y497266D01*
X15031313Y499448D01*
X15034920Y499500D01*
X21536295Y499500D01*
X21554265Y498191D01*
X21578023Y494711D01*
X21627369Y499029D01*
X21638176Y499500D01*
X21643704Y499500D01*
X21643709Y499500D01*
X21674556Y503107D01*
X21678030Y503461D01*
X21752797Y510001D01*
X21752805Y510004D01*
X21759866Y511461D01*
X21759878Y511402D01*
X21767243Y513035D01*
X21767229Y513094D01*
X21774249Y514759D01*
X21774255Y514759D01*
X21844779Y540428D01*
X21848117Y541588D01*
X21919334Y565186D01*
X21919342Y565192D01*
X21925882Y568240D01*
X21925908Y568184D01*
X21932690Y571468D01*
X21932663Y571522D01*
X21939113Y574762D01*
X21939117Y574763D01*
X22001837Y616016D01*
X22004732Y617860D01*
X22068656Y657288D01*
X22068662Y657295D01*
X22074325Y661771D01*
X22074363Y661723D01*
X22080200Y666478D01*
X22080161Y666525D01*
X22085691Y671167D01*
X22085696Y671170D01*
X22137184Y725746D01*
X22139630Y728264D01*
X22912322Y1500955D01*
X22973641Y1534437D01*
X23043333Y1529453D01*
X23087680Y1500952D01*
X23824270Y764362D01*
X23836051Y750730D01*
X23850388Y731472D01*
X23850389Y731471D01*
X23850390Y731470D01*
X23855696Y727018D01*
X23888337Y699628D01*
X23896310Y692321D01*
X23900217Y688414D01*
X23900223Y688409D01*
X23924537Y669184D01*
X23927318Y666920D01*
X23954956Y643729D01*
X23984789Y618695D01*
X23990818Y614730D01*
X23990785Y614681D01*
X23997147Y610628D01*
X23997179Y610679D01*
X24003318Y606893D01*
X24003323Y606889D01*
X24041977Y588865D01*
X24071320Y575181D01*
X24074566Y573609D01*
X24141562Y539962D01*
X24148357Y537489D01*
X24148336Y537433D01*
X24155457Y534957D01*
X24155476Y535014D01*
X24162319Y532747D01*
X24162327Y532743D01*
X24235895Y517553D01*
X24239228Y516814D01*
X24312279Y499500D01*
X24312281Y499500D01*
X24312285Y499499D01*
X24319453Y498661D01*
X24319446Y498602D01*
X24326944Y497836D01*
X24326950Y497895D01*
X24334139Y497266D01*
X24334143Y497267D01*
X24334144Y497266D01*
X24409130Y499448D01*
X24412737Y499500D01*
X26006295Y499500D01*
X26024265Y498191D01*
X26048023Y494711D01*
X26097369Y499029D01*
X26108176Y499500D01*
X26113704Y499500D01*
X26113709Y499500D01*
X26144556Y503107D01*
X26148030Y503461D01*
X26222797Y510001D01*
X26222805Y510004D01*
X26229866Y511461D01*
X26229878Y511402D01*
X26237243Y513035D01*
X26237229Y513094D01*
X26244249Y514759D01*
X26244255Y514759D01*
X26314779Y540428D01*
X26318117Y541588D01*
X26389334Y565186D01*
X26389342Y565192D01*
X26395882Y568240D01*
X26395908Y568184D01*
X26402690Y571468D01*
X26402663Y571522D01*
X26409113Y574762D01*
X26409117Y574763D01*
X26471837Y616016D01*
X26474732Y617860D01*
X26538656Y657288D01*
X26538662Y657295D01*
X26544325Y661771D01*
X26544362Y661723D01*
X26550204Y666482D01*
X26550164Y666529D01*
X26555686Y671165D01*
X26555696Y671170D01*
X26607185Y725747D01*
X26609632Y728266D01*
X27468498Y1587133D01*
X27529819Y1620616D01*
X27566983Y1622978D01*
X27709861Y1610478D01*
X27779999Y1604341D01*
X27780000Y1604341D01*
X27780001Y1604341D01*
X27819234Y1607774D01*
X28015408Y1624937D01*
X28243663Y1686097D01*
X28457830Y1785965D01*
X28651401Y1921505D01*
X28818495Y2088599D01*
X28954035Y2282170D01*
X29053903Y2496337D01*
X29115063Y2724592D01*
X29135659Y2960000D01*
X29115063Y3195408D01*
X29053903Y3423663D01*
X28954035Y3637829D01*
X28948425Y3645842D01*
X28818494Y3831403D01*
X28651402Y3998494D01*
X28651396Y3998499D01*
X28465842Y4128425D01*
X28422217Y4183002D01*
X28415023Y4252500D01*
X28446546Y4314855D01*
X28465842Y4331575D01*
X28528573Y4375500D01*
X28651401Y4461505D01*
X28818495Y4628599D01*
X28954035Y4822170D01*
X29053903Y5036337D01*
X29115063Y5264592D01*
X29135659Y5500000D01*
X29135659Y5501861D01*
X29135891Y5502652D01*
X29136131Y5505394D01*
X29136682Y5505346D01*
X29155344Y5568900D01*
X29208148Y5614655D01*
X29277306Y5624599D01*
X29340862Y5595574D01*
X29344718Y5592088D01*
X29375743Y5562816D01*
X29378296Y5560336D01*
X29977773Y4960859D01*
X30538842Y4399791D01*
X30572327Y4338468D01*
X30574326Y4305732D01*
X30574571Y4305732D01*
X30574571Y4301720D01*
X30574634Y4300688D01*
X30574571Y4300007D01*
X30574571Y4300000D01*
X30594244Y4087690D01*
X30641293Y3922331D01*
X30652596Y3882608D01*
X30652596Y3882606D01*
X30747632Y3691747D01*
X30876127Y3521594D01*
X30876128Y3521593D01*
X31033698Y3377948D01*
X31214981Y3265702D01*
X31413802Y3188679D01*
X31623390Y3149500D01*
X31623392Y3149500D01*
X31725500Y3149500D01*
X31792539Y3129815D01*
X31838294Y3077011D01*
X31849500Y3025500D01*
X31849500Y2332130D01*
X31849501Y2332124D01*
X31855908Y2272517D01*
X31906202Y2137672D01*
X31906206Y2137665D01*
X31992452Y2022456D01*
X31992455Y2022453D01*
X32107664Y1936207D01*
X32107671Y1936203D01*
X32242517Y1885909D01*
X32242516Y1885909D01*
X32249444Y1885165D01*
X32302127Y1879500D01*
X33697872Y1879501D01*
X33757483Y1885909D01*
X33892331Y1936204D01*
X34007546Y2022454D01*
X34093796Y2137669D01*
X34114744Y2193833D01*
X34156615Y2249767D01*
X34222079Y2274184D01*
X34230926Y2274500D01*
X36025501Y2274500D01*
X36092540Y2254815D01*
X36138295Y2202011D01*
X36149501Y2150500D01*
X36149501Y2127124D01*
X36155908Y2067517D01*
X36206202Y1932672D01*
X36206206Y1932665D01*
X36292452Y1817456D01*
X36292455Y1817453D01*
X36407664Y1731207D01*
X36407671Y1731203D01*
X36542517Y1680909D01*
X36542516Y1680909D01*
X36549444Y1680165D01*
X36602127Y1674500D01*
X38397872Y1674501D01*
X38457483Y1680909D01*
X38592331Y1731204D01*
X38707546Y1817454D01*
X38793796Y1932669D01*
X38844091Y2067517D01*
X38850500Y2127127D01*
X38850499Y3922872D01*
X38844091Y3982483D01*
X38842915Y3985635D01*
X38793797Y4117329D01*
X38793793Y4117336D01*
X38707547Y4232545D01*
X38707544Y4232548D01*
X38592335Y4318794D01*
X38592328Y4318798D01*
X38460401Y4368003D01*
X38404467Y4409874D01*
X38380050Y4475338D01*
X38394902Y4543611D01*
X38416053Y4571867D01*
X38538108Y4693922D01*
X38673600Y4887422D01*
X38773429Y5101508D01*
X38773432Y5101514D01*
X38830636Y5315000D01*
X37933686Y5315000D01*
X37959493Y5355156D01*
X38000000Y5493111D01*
X38000000Y5636889D01*
X37959493Y5774844D01*
X37933686Y5815000D01*
X38830636Y5815000D01*
X38830635Y5815001D01*
X38773432Y6028487D01*
X38773429Y6028493D01*
X38673600Y6242578D01*
X38673599Y6242580D01*
X38538113Y6436074D01*
X38538108Y6436080D01*
X38371082Y6603106D01*
X38177578Y6738601D01*
X37963492Y6838430D01*
X37963486Y6838433D01*
X37750000Y6895636D01*
X37750000Y6000502D01*
X37642315Y6049680D01*
X37535763Y6065000D01*
X37464237Y6065000D01*
X37357685Y6049680D01*
X37250000Y6000502D01*
X37250000Y6895636D01*
X37249999Y6895636D01*
X37036513Y6838433D01*
X37036507Y6838430D01*
X36822422Y6738601D01*
X36822420Y6738600D01*
X36628926Y6603114D01*
X36628920Y6603109D01*
X36461891Y6436080D01*
X36461886Y6436074D01*
X36326400Y6242580D01*
X36326399Y6242578D01*
X36226570Y6028493D01*
X36226567Y6028487D01*
X36169364Y5815001D01*
X36169364Y5815000D01*
X37066314Y5815000D01*
X37040507Y5774844D01*
X37000000Y5636889D01*
X37000000Y5493111D01*
X37040507Y5355156D01*
X37066314Y5315000D01*
X36169364Y5315000D01*
X36226567Y5101514D01*
X36226570Y5101508D01*
X36326399Y4887422D01*
X36461894Y4693918D01*
X36583946Y4571866D01*
X36617431Y4510543D01*
X36612447Y4440851D01*
X36570575Y4384918D01*
X36539598Y4368003D01*
X36407671Y4318798D01*
X36407664Y4318794D01*
X36292455Y4232548D01*
X36292452Y4232545D01*
X36206206Y4117336D01*
X36206202Y4117329D01*
X36155908Y3982483D01*
X36149501Y3922884D01*
X36149501Y3922877D01*
X36149500Y3922865D01*
X36149500Y3899500D01*
X36129815Y3832461D01*
X36077011Y3786706D01*
X36025500Y3775500D01*
X34234656Y3775500D01*
X34167617Y3795185D01*
X34121862Y3847989D01*
X34118474Y3856167D01*
X34093797Y3922329D01*
X34093793Y3922336D01*
X34007547Y4037545D01*
X34007544Y4037548D01*
X33892335Y4123794D01*
X33892328Y4123798D01*
X33757482Y4174092D01*
X33757483Y4174092D01*
X33697883Y4180499D01*
X33697881Y4180500D01*
X33697873Y4180500D01*
X33697865Y4180500D01*
X33163524Y4180500D01*
X33096485Y4200185D01*
X33050730Y4252989D01*
X33040786Y4322147D01*
X33069811Y4385703D01*
X33128589Y4423477D01*
X33140739Y4426389D01*
X33316058Y4459163D01*
X33316063Y4459164D01*
X33514791Y4536151D01*
X33514798Y4536154D01*
X33617006Y4599440D01*
X33617006Y4599441D01*
X33021447Y5195000D01*
X33031073Y5195000D01*
X33123446Y5210414D01*
X33233514Y5269981D01*
X33318278Y5362059D01*
X33368551Y5476670D01*
X33374545Y5549008D01*
X33973162Y4950391D01*
X33973163Y4950391D01*
X33981940Y4962012D01*
X33981942Y4962015D01*
X34076933Y5152784D01*
X34076941Y5152804D01*
X34135261Y5357781D01*
X34135262Y5357784D01*
X34154927Y5570000D01*
X34154927Y5570001D01*
X34135262Y5782217D01*
X34135261Y5782220D01*
X34076941Y5987197D01*
X34076933Y5987217D01*
X33981942Y6177986D01*
X33981937Y6177994D01*
X33973163Y6189611D01*
X33973162Y6189611D01*
X33378338Y5594787D01*
X33378886Y5601395D01*
X33348163Y5722719D01*
X33279711Y5827492D01*
X33180948Y5904363D01*
X33062576Y5945000D01*
X33021448Y5945000D01*
X33617007Y6540561D01*
X33514793Y6603849D01*
X33514789Y6603851D01*
X33316063Y6680837D01*
X33316058Y6680838D01*
X33106561Y6720000D01*
X32893439Y6720000D01*
X32683941Y6680838D01*
X32683936Y6680837D01*
X32485210Y6603851D01*
X32485201Y6603846D01*
X32382992Y6540562D01*
X32382991Y6540561D01*
X32978553Y5945000D01*
X32968927Y5945000D01*
X32876554Y5929586D01*
X32766486Y5870019D01*
X32681722Y5777941D01*
X32631449Y5663330D01*
X32625454Y5590993D01*
X32026836Y6189612D01*
X32018059Y6177990D01*
X31923066Y5987217D01*
X31923058Y5987197D01*
X31864738Y5782220D01*
X31864737Y5782217D01*
X31844544Y5564292D01*
X31842140Y5564515D01*
X31825388Y5507461D01*
X31772584Y5461706D01*
X31721073Y5450500D01*
X31662229Y5450500D01*
X31595190Y5470185D01*
X31574548Y5486819D01*
X30686819Y6374549D01*
X30653334Y6435872D01*
X30650500Y6462230D01*
X30650500Y9050408D01*
X30670185Y9117447D01*
X30722989Y9163202D01*
X30792147Y9173146D01*
X30855703Y9144121D01*
X30873456Y9125131D01*
X30876128Y9121593D01*
X31033698Y8977948D01*
X31214981Y8865702D01*
X31413802Y8788679D01*
X31623390Y8749500D01*
X31623392Y8749500D01*
X31725500Y8749500D01*
X31792539Y8729815D01*
X31838294Y8677011D01*
X31849500Y8625500D01*
X31849500Y7932130D01*
X31849501Y7932124D01*
X31855908Y7872517D01*
X31906202Y7737672D01*
X31906206Y7737665D01*
X31992452Y7622456D01*
X31992455Y7622453D01*
X32107664Y7536207D01*
X32107671Y7536203D01*
X32242517Y7485909D01*
X32242516Y7485909D01*
X32249444Y7485165D01*
X32302127Y7479500D01*
X33697872Y7479501D01*
X33757483Y7485909D01*
X33892331Y7536204D01*
X34007546Y7622454D01*
X34093796Y7737669D01*
X34144091Y7872517D01*
X34150500Y7932127D01*
X34150499Y8667772D01*
X34170183Y8734810D01*
X34186813Y8755447D01*
X34544548Y9113181D01*
X34605871Y9146666D01*
X34632229Y9149500D01*
X36025501Y9149500D01*
X36092540Y9129815D01*
X36138295Y9077011D01*
X36149501Y9025500D01*
X36149501Y9002124D01*
X36155908Y8942517D01*
X36206202Y8807672D01*
X36206206Y8807665D01*
X36292452Y8692456D01*
X36292455Y8692453D01*
X36407664Y8606207D01*
X36407671Y8606203D01*
X36542517Y8555909D01*
X36542516Y8555909D01*
X36549444Y8555165D01*
X36602127Y8549500D01*
X38397872Y8549501D01*
X38457483Y8555909D01*
X38592331Y8606204D01*
X38707546Y8692454D01*
X38793796Y8807669D01*
X38844091Y8942517D01*
X38850500Y9002127D01*
X38850499Y10797872D01*
X38844091Y10857483D01*
X38839182Y10870644D01*
X38793797Y10992329D01*
X38793793Y10992336D01*
X38707547Y11107545D01*
X38707544Y11107548D01*
X38592335Y11193794D01*
X38592328Y11193798D01*
X38457482Y11244092D01*
X38457483Y11244092D01*
X38397883Y11250499D01*
X38397881Y11250500D01*
X38397873Y11250500D01*
X38397864Y11250500D01*
X36602129Y11250500D01*
X36602123Y11250499D01*
X36542516Y11244092D01*
X36407671Y11193798D01*
X36407664Y11193794D01*
X36292455Y11107548D01*
X36292452Y11107545D01*
X36206206Y10992336D01*
X36206202Y10992329D01*
X36155908Y10857483D01*
X36149728Y10799998D01*
X36149501Y10797877D01*
X36149500Y10797865D01*
X36149500Y10774500D01*
X36129815Y10707461D01*
X36077011Y10661706D01*
X36025500Y10650500D01*
X34333705Y10650500D01*
X34315735Y10651809D01*
X34291972Y10655290D01*
X34245642Y10651236D01*
X34242632Y10650972D01*
X34231826Y10650500D01*
X34226277Y10650500D01*
X34226182Y10650488D01*
X34226157Y10650493D01*
X34222682Y10650290D01*
X34222635Y10651095D01*
X34157311Y10662260D01*
X34105737Y10709397D01*
X34087836Y10776935D01*
X34092526Y10807585D01*
X34135262Y10957785D01*
X34154927Y11170000D01*
X34154927Y11170001D01*
X34135262Y11382217D01*
X34135261Y11382220D01*
X34076941Y11587197D01*
X34076933Y11587217D01*
X33981942Y11777986D01*
X33981937Y11777994D01*
X33973163Y11789611D01*
X33973162Y11789611D01*
X33378338Y11194788D01*
X33378886Y11201395D01*
X33348163Y11322719D01*
X33279711Y11427492D01*
X33180948Y11504363D01*
X33062576Y11545000D01*
X33021448Y11545000D01*
X33617007Y12140561D01*
X33514793Y12203849D01*
X33514789Y12203851D01*
X33316063Y12280837D01*
X33316058Y12280838D01*
X33106561Y12320000D01*
X32893439Y12320000D01*
X32683941Y12280838D01*
X32683936Y12280837D01*
X32485210Y12203851D01*
X32485201Y12203846D01*
X32382992Y12140562D01*
X32382991Y12140561D01*
X32978553Y11545000D01*
X32968927Y11545000D01*
X32876554Y11529586D01*
X32766486Y11470019D01*
X32681722Y11377941D01*
X32631449Y11263330D01*
X32625454Y11190993D01*
X32026836Y11789612D01*
X32018059Y11777990D01*
X31923066Y11587217D01*
X31923058Y11587197D01*
X31864738Y11382220D01*
X31864737Y11382217D01*
X31844544Y11164292D01*
X31842140Y11164515D01*
X31825388Y11107461D01*
X31772584Y11061706D01*
X31721073Y11050500D01*
X31662229Y11050500D01*
X31595190Y11070185D01*
X31574548Y11086819D01*
X28086819Y14574549D01*
X28053334Y14635872D01*
X28050500Y14662230D01*
X28050500Y15293338D01*
X28070185Y15360377D01*
X28103379Y15394914D01*
X28139139Y15419953D01*
X28300047Y15580861D01*
X28430568Y15767266D01*
X28526739Y15973504D01*
X28585635Y16193308D01*
X28605468Y16420000D01*
X28602337Y16455782D01*
X28596634Y16520976D01*
X28585635Y16646692D01*
X28526739Y16866496D01*
X28430568Y17072734D01*
X28300047Y17259139D01*
X28300045Y17259142D01*
X28271368Y17287819D01*
X28237883Y17349142D01*
X28242867Y17418834D01*
X28284739Y17474767D01*
X28350203Y17499184D01*
X28359049Y17499500D01*
X28687770Y17499500D01*
X28754809Y17479815D01*
X28775451Y17463181D01*
X30543518Y15695114D01*
X30577003Y15633791D01*
X30579308Y15618874D01*
X30594244Y15457690D01*
X30641293Y15292331D01*
X30652596Y15252608D01*
X30652596Y15252606D01*
X30747632Y15061747D01*
X30847492Y14929513D01*
X30876128Y14891593D01*
X31033698Y14747948D01*
X31214981Y14635702D01*
X31413802Y14558679D01*
X31623390Y14519500D01*
X31623392Y14519500D01*
X31725500Y14519500D01*
X31792539Y14499815D01*
X31838294Y14447011D01*
X31849500Y14395500D01*
X31849500Y13702130D01*
X31849501Y13702124D01*
X31855908Y13642517D01*
X31906202Y13507672D01*
X31906206Y13507665D01*
X31992452Y13392456D01*
X31992455Y13392453D01*
X32107664Y13306207D01*
X32107671Y13306203D01*
X32242517Y13255909D01*
X32242516Y13255909D01*
X32249444Y13255165D01*
X32302127Y13249500D01*
X33697872Y13249501D01*
X33757483Y13255909D01*
X33892331Y13306204D01*
X34007546Y13392454D01*
X34093796Y13507669D01*
X34116609Y13568833D01*
X34158480Y13624767D01*
X34223944Y13649184D01*
X34232791Y13649500D01*
X36025501Y13649500D01*
X36092540Y13629815D01*
X36138295Y13577011D01*
X36149501Y13525500D01*
X36149501Y13502124D01*
X36155908Y13442517D01*
X36206202Y13307672D01*
X36206206Y13307665D01*
X36292452Y13192456D01*
X36292455Y13192453D01*
X36407664Y13106207D01*
X36407671Y13106203D01*
X36542517Y13055909D01*
X36542516Y13055909D01*
X36549444Y13055165D01*
X36602127Y13049500D01*
X38397872Y13049501D01*
X38457483Y13055909D01*
X38592331Y13106204D01*
X38707546Y13192454D01*
X38793796Y13307669D01*
X38844091Y13442517D01*
X38850500Y13502127D01*
X38850499Y15297872D01*
X38844091Y15357483D01*
X38820791Y15419953D01*
X38793797Y15492329D01*
X38793793Y15492336D01*
X38707547Y15607545D01*
X38707544Y15607548D01*
X38592335Y15693794D01*
X38592328Y15693798D01*
X38457482Y15744092D01*
X38457483Y15744092D01*
X38397883Y15750499D01*
X38397881Y15750500D01*
X38397873Y15750500D01*
X38397864Y15750500D01*
X36602129Y15750500D01*
X36602123Y15750499D01*
X36542516Y15744092D01*
X36407671Y15693798D01*
X36407664Y15693794D01*
X36292455Y15607548D01*
X36292452Y15607545D01*
X36206206Y15492336D01*
X36206202Y15492329D01*
X36155908Y15357483D01*
X36149501Y15297884D01*
X36149501Y15297877D01*
X36149500Y15297865D01*
X36149500Y15274500D01*
X36129815Y15207461D01*
X36077011Y15161706D01*
X36025500Y15150500D01*
X34232791Y15150500D01*
X34165752Y15170185D01*
X34119997Y15222989D01*
X34116609Y15231167D01*
X34093797Y15292329D01*
X34093793Y15292336D01*
X34007547Y15407545D01*
X34007544Y15407548D01*
X33892335Y15493794D01*
X33892328Y15493798D01*
X33757482Y15544092D01*
X33757483Y15544092D01*
X33697883Y15550499D01*
X33697881Y15550500D01*
X33697873Y15550500D01*
X33697865Y15550500D01*
X33163524Y15550500D01*
X33096485Y15570185D01*
X33050730Y15622989D01*
X33040786Y15692147D01*
X33069811Y15755703D01*
X33128589Y15793477D01*
X33140739Y15796389D01*
X33316058Y15829163D01*
X33316063Y15829164D01*
X33514791Y15906151D01*
X33514798Y15906154D01*
X33617006Y15969440D01*
X33617006Y15969441D01*
X33021447Y16565000D01*
X33031073Y16565000D01*
X33123446Y16580414D01*
X33233514Y16639981D01*
X33318278Y16732059D01*
X33368551Y16846670D01*
X33374545Y16919008D01*
X33973162Y16320391D01*
X33973163Y16320391D01*
X33981940Y16332012D01*
X33981942Y16332015D01*
X34076933Y16522784D01*
X34076941Y16522804D01*
X34135261Y16727781D01*
X34135262Y16727784D01*
X34154927Y16940000D01*
X34154927Y16940001D01*
X34135262Y17152217D01*
X34135261Y17152220D01*
X34076941Y17357197D01*
X34076933Y17357217D01*
X33981942Y17547986D01*
X33981937Y17547994D01*
X33973163Y17559611D01*
X33378338Y16964787D01*
X33378886Y16971395D01*
X33348163Y17092719D01*
X33279711Y17197492D01*
X33180948Y17274363D01*
X33062576Y17315000D01*
X33021448Y17315000D01*
X33617007Y17910561D01*
X33514793Y17973849D01*
X33514789Y17973851D01*
X33316063Y18050837D01*
X33316058Y18050838D01*
X33106561Y18090000D01*
X32893439Y18090000D01*
X32683941Y18050838D01*
X32683936Y18050837D01*
X32485210Y17973851D01*
X32485201Y17973846D01*
X32382992Y17910562D01*
X32382991Y17910561D01*
X32978553Y17315000D01*
X32968927Y17315000D01*
X32876554Y17299586D01*
X32766486Y17240019D01*
X32681722Y17147941D01*
X32631449Y17033330D01*
X32625454Y16960993D01*
X32026836Y17559612D01*
X32018059Y17547990D01*
X31923066Y17357217D01*
X31923058Y17357197D01*
X31864738Y17152220D01*
X31864737Y17152217D01*
X31844544Y16934292D01*
X31842140Y16934515D01*
X31825388Y16877461D01*
X31772584Y16831706D01*
X31721073Y16820500D01*
X31623382Y16820500D01*
X31618099Y16819512D01*
X31548585Y16826550D01*
X31507646Y16853722D01*
X29625729Y18735639D01*
X29613949Y18749270D01*
X29599610Y18768530D01*
X29561651Y18800381D01*
X29553686Y18807682D01*
X29549780Y18811589D01*
X29525443Y18830832D01*
X29522647Y18833110D01*
X29465214Y18881302D01*
X29459180Y18885271D01*
X29459212Y18885320D01*
X29452853Y18889372D01*
X29452822Y18889321D01*
X29446680Y18893109D01*
X29446678Y18893110D01*
X29446677Y18893111D01*
X29378688Y18924816D01*
X29375447Y18926385D01*
X29344530Y18941912D01*
X29308433Y18960040D01*
X29308431Y18960041D01*
X29308430Y18960041D01*
X29301645Y18962511D01*
X29301665Y18962567D01*
X29294549Y18965041D01*
X29294531Y18964985D01*
X29287674Y18967257D01*
X29214210Y18982427D01*
X29210693Y18983207D01*
X29137718Y19000501D01*
X29130547Y19001339D01*
X29130553Y19001399D01*
X29123055Y19002165D01*
X29123050Y19002105D01*
X29115860Y19002735D01*
X29040870Y19000552D01*
X29037263Y19000500D01*
X23113705Y19000500D01*
X23095735Y19001809D01*
X23071972Y19005290D01*
X23025642Y19001236D01*
X23022632Y19000972D01*
X23011826Y19000500D01*
X23006282Y19000500D01*
X22975488Y18996901D01*
X22971905Y18996535D01*
X22897200Y18989999D01*
X22890134Y18988539D01*
X22890122Y18988596D01*
X22882753Y18986962D01*
X22882767Y18986905D01*
X22875739Y18985240D01*
X22805271Y18959592D01*
X22801867Y18958409D01*
X22730668Y18934816D01*
X22724122Y18931763D01*
X22724097Y18931815D01*
X22717308Y18928529D01*
X22717334Y18928478D01*
X22710886Y18925240D01*
X22648228Y18884030D01*
X22645191Y18882095D01*
X22581344Y18842712D01*
X22575677Y18838231D01*
X22575641Y18838277D01*
X22569798Y18833516D01*
X22569835Y18833472D01*
X22564310Y18828836D01*
X22564304Y18828831D01*
X22564304Y18828830D01*
X22540733Y18803847D01*
X22512848Y18774291D01*
X22510336Y18771706D01*
X21465348Y17726718D01*
X21404025Y17693233D01*
X21366861Y17690871D01*
X21200003Y17705468D01*
X21199998Y17705468D01*
X20973313Y17685636D01*
X20973302Y17685634D01*
X20753511Y17626742D01*
X20753502Y17626739D01*
X20547267Y17530569D01*
X20547265Y17530568D01*
X20360858Y17400046D01*
X20199954Y17239142D01*
X20069432Y17052735D01*
X20069431Y17052733D01*
X19973261Y16846498D01*
X19973258Y16846489D01*
X19914366Y16626698D01*
X19914364Y16626687D01*
X19894532Y16400002D01*
X19894532Y16399999D01*
X19914364Y16173314D01*
X19914366Y16173303D01*
X19973258Y15953512D01*
X19973261Y15953503D01*
X20069431Y15747268D01*
X20069432Y15747266D01*
X20199954Y15560859D01*
X20360858Y15399955D01*
X20392625Y15377712D01*
X20547266Y15269432D01*
X20753504Y15173261D01*
X20753509Y15173260D01*
X20753511Y15173259D01*
X20796628Y15161706D01*
X20973308Y15114365D01*
X21135230Y15100199D01*
X21199998Y15094532D01*
X21200000Y15094532D01*
X21200002Y15094532D01*
X21256673Y15099491D01*
X21426692Y15114365D01*
X21646496Y15173261D01*
X21852734Y15269432D01*
X22039139Y15399953D01*
X22200047Y15560861D01*
X22330568Y15747266D01*
X22426739Y15953504D01*
X22485635Y16173308D01*
X22505468Y16400000D01*
X22490869Y16566863D01*
X22504635Y16635361D01*
X22526713Y16665347D01*
X22895260Y17033893D01*
X22956582Y17067377D01*
X23026274Y17062393D01*
X23082207Y17020521D01*
X23106624Y16955057D01*
X23095322Y16893807D01*
X23073263Y16846503D01*
X23073258Y16846489D01*
X23014366Y16626698D01*
X23014364Y16626687D01*
X22994532Y16400002D01*
X22994532Y16399999D01*
X23014364Y16173314D01*
X23014366Y16173303D01*
X23073258Y15953512D01*
X23073261Y15953503D01*
X23169431Y15747268D01*
X23169432Y15747266D01*
X23299954Y15560859D01*
X23460855Y15399958D01*
X23460858Y15399956D01*
X23460861Y15399953D01*
X23492627Y15377711D01*
X23536251Y15323135D01*
X23545031Y15286944D01*
X23549028Y15241262D01*
X23549500Y15230454D01*
X23549500Y15224919D01*
X23553098Y15194135D01*
X23553464Y15190547D01*
X23560000Y15115839D01*
X23561461Y15108763D01*
X23561403Y15108752D01*
X23563034Y15101393D01*
X23563092Y15101406D01*
X23564757Y15094381D01*
X23590400Y15023925D01*
X23591582Y15020523D01*
X23615182Y14949304D01*
X23618236Y14942756D01*
X23618182Y14942732D01*
X23621470Y14935942D01*
X23621521Y14935967D01*
X23624761Y14929516D01*
X23665979Y14866846D01*
X23667889Y14863848D01*
X23698972Y14813456D01*
X23707289Y14799972D01*
X23711766Y14794311D01*
X23711719Y14794274D01*
X23716482Y14788428D01*
X23716528Y14788466D01*
X23721173Y14782931D01*
X23775707Y14731481D01*
X23778295Y14728967D01*
X29113181Y9394081D01*
X29146666Y9332758D01*
X29149500Y9306400D01*
X29149500Y6291955D01*
X29129815Y6224916D01*
X29077011Y6179161D01*
X29007853Y6169217D01*
X28944297Y6198242D01*
X28923925Y6220832D01*
X28818494Y6371403D01*
X28651404Y6538493D01*
X28583375Y6586128D01*
X28539751Y6640706D01*
X28530500Y6687702D01*
X28530500Y8256295D01*
X28531809Y8274264D01*
X28535289Y8298026D01*
X28531431Y8342122D01*
X28535184Y8385024D01*
X28585635Y8573308D01*
X28605468Y8800000D01*
X28604797Y8807665D01*
X28592999Y8942518D01*
X28585635Y9026692D01*
X28534887Y9216088D01*
X28526741Y9246489D01*
X28526738Y9246498D01*
X28474854Y9357762D01*
X28430568Y9452734D01*
X28300047Y9639139D01*
X28300045Y9639142D01*
X28139141Y9800046D01*
X27952734Y9930568D01*
X27952732Y9930569D01*
X27746497Y10026739D01*
X27746488Y10026742D01*
X27526697Y10085634D01*
X27526693Y10085635D01*
X27526692Y10085635D01*
X27526691Y10085636D01*
X27526686Y10085636D01*
X27300002Y10105468D01*
X27299998Y10105468D01*
X27073313Y10085636D01*
X27073302Y10085634D01*
X26853511Y10026742D01*
X26853502Y10026739D01*
X26647267Y9930569D01*
X26647265Y9930568D01*
X26460858Y9800046D01*
X26299954Y9639142D01*
X26169432Y9452735D01*
X26169431Y9452733D01*
X26073261Y9246498D01*
X26073258Y9246489D01*
X26014366Y9026698D01*
X26014364Y9026687D01*
X25994532Y8800002D01*
X25994532Y8799999D01*
X26014364Y8573314D01*
X26014366Y8573303D01*
X26060165Y8402375D01*
X26058502Y8332525D01*
X26019339Y8274663D01*
X25955110Y8247159D01*
X25886208Y8258746D01*
X25837241Y8303027D01*
X25837193Y8302988D01*
X25836964Y8303278D01*
X25834849Y8305190D01*
X25832712Y8308655D01*
X25832710Y8308657D01*
X25832709Y8308659D01*
X25828234Y8314318D01*
X25828281Y8314356D01*
X25823519Y8320201D01*
X25823474Y8320162D01*
X25818831Y8325695D01*
X25810545Y8333512D01*
X25764273Y8377168D01*
X25761719Y8379648D01*
X25626714Y8514654D01*
X25593231Y8575975D01*
X25590869Y8613137D01*
X25605468Y8780000D01*
X25602239Y8816902D01*
X25597965Y8865760D01*
X25585635Y9006692D01*
X25526739Y9226496D01*
X25430568Y9432734D01*
X25300047Y9619139D01*
X25300045Y9619142D01*
X25139141Y9780046D01*
X24952734Y9910568D01*
X24952732Y9910569D01*
X24746497Y10006739D01*
X24746488Y10006742D01*
X24526697Y10065634D01*
X24526693Y10065635D01*
X24526692Y10065635D01*
X24526691Y10065636D01*
X24526686Y10065636D01*
X24300002Y10085468D01*
X24299998Y10085468D01*
X24073313Y10065636D01*
X24073302Y10065634D01*
X23853511Y10006742D01*
X23853502Y10006739D01*
X23647267Y9910569D01*
X23647265Y9910568D01*
X23460858Y9780046D01*
X23299954Y9619142D01*
X23169432Y9432735D01*
X23169431Y9432733D01*
X23073261Y9226498D01*
X23073258Y9226489D01*
X23014366Y9006698D01*
X23014364Y9006687D01*
X22994532Y8780002D01*
X22994532Y8779999D01*
X23014364Y8553314D01*
X23014366Y8553303D01*
X23073258Y8333512D01*
X23073263Y8333498D01*
X23095321Y8286195D01*
X23105813Y8217118D01*
X23077293Y8153334D01*
X23018816Y8115095D01*
X22948949Y8114541D01*
X22895258Y8146110D01*
X22526716Y8514652D01*
X22493231Y8575975D01*
X22490869Y8613137D01*
X22505468Y8780000D01*
X22502239Y8816902D01*
X22497965Y8865760D01*
X22485635Y9006692D01*
X22426739Y9226496D01*
X22330568Y9432734D01*
X22200047Y9619139D01*
X22200045Y9619142D01*
X22039141Y9780046D01*
X21852734Y9910568D01*
X21852732Y9910569D01*
X21646497Y10006739D01*
X21646488Y10006742D01*
X21426697Y10065634D01*
X21426693Y10065635D01*
X21426692Y10065635D01*
X21426691Y10065636D01*
X21426686Y10065636D01*
X21200002Y10085468D01*
X21199998Y10085468D01*
X20973313Y10065636D01*
X20973302Y10065634D01*
X20753511Y10006742D01*
X20753502Y10006739D01*
X20547267Y9910569D01*
X20547265Y9910568D01*
X20360858Y9780046D01*
X20199954Y9619142D01*
X20069432Y9432735D01*
X20069431Y9432733D01*
X19973261Y9226498D01*
X19973258Y9226489D01*
X19914366Y9006698D01*
X19914364Y9006687D01*
X19894532Y8780002D01*
X19894532Y8779999D01*
X19914364Y8553314D01*
X19914366Y8553303D01*
X19973258Y8333512D01*
X19973261Y8333503D01*
X20069431Y8127268D01*
X20069432Y8127266D01*
X20199954Y7940859D01*
X20360858Y7779955D01*
X20405558Y7748656D01*
X20547266Y7649432D01*
X20753504Y7553261D01*
X20753509Y7553260D01*
X20753511Y7553259D01*
X20806415Y7539084D01*
X20973308Y7494365D01*
X21135230Y7480199D01*
X21199998Y7474532D01*
X21200000Y7474532D01*
X21200001Y7474532D01*
X21220062Y7476288D01*
X21366861Y7489131D01*
X21435359Y7475365D01*
X21465348Y7453284D01*
X21913181Y7005452D01*
X21946666Y6944129D01*
X21949500Y6917771D01*
X21949500Y6687702D01*
X21929815Y6620663D01*
X21896625Y6586128D01*
X21828595Y6538493D01*
X21661508Y6371406D01*
X21531269Y6185405D01*
X21476692Y6141781D01*
X21407193Y6134588D01*
X21344839Y6166110D01*
X21328119Y6185406D01*
X21198113Y6371074D01*
X21198108Y6371080D01*
X21031082Y6538106D01*
X20837578Y6673601D01*
X20623492Y6773430D01*
X20623486Y6773433D01*
X20410000Y6830636D01*
X20410000Y5935502D01*
X20302315Y5984680D01*
X20195763Y6000000D01*
X20124237Y6000000D01*
X20017685Y5984680D01*
X19910000Y5935502D01*
X19910000Y6830636D01*
X19909999Y6830636D01*
X19696513Y6773433D01*
X19696507Y6773430D01*
X19482422Y6673601D01*
X19482420Y6673600D01*
X19288926Y6538114D01*
X19288920Y6538109D01*
X19121891Y6371080D01*
X19121886Y6371074D01*
X18986400Y6177580D01*
X18986399Y6177578D01*
X18886570Y5963493D01*
X18886567Y5963487D01*
X18829364Y5750001D01*
X18829364Y5750000D01*
X19726314Y5750000D01*
X19700507Y5709844D01*
X19660000Y5571889D01*
X19660000Y5428111D01*
X19700507Y5290156D01*
X19726314Y5250000D01*
X18829364Y5250000D01*
X18886567Y5036514D01*
X18886570Y5036508D01*
X18986399Y4822422D01*
X19121894Y4628918D01*
X19243946Y4506866D01*
X19277431Y4445543D01*
X19272447Y4375851D01*
X19230575Y4319918D01*
X19199598Y4303003D01*
X19067671Y4253798D01*
X19067664Y4253794D01*
X18952455Y4167548D01*
X18952452Y4167545D01*
X18866206Y4052336D01*
X18866202Y4052329D01*
X18815908Y3917483D01*
X18811510Y3876570D01*
X18809501Y3857877D01*
X18809500Y3857865D01*
X18809500Y3834500D01*
X18789815Y3767461D01*
X18737011Y3721706D01*
X18685500Y3710500D01*
X17974499Y3710500D01*
X17907460Y3730185D01*
X17861705Y3782989D01*
X17850499Y3834500D01*
X17850499Y3857871D01*
X17850498Y3857877D01*
X17850497Y3857884D01*
X17844091Y3917483D01*
X17842809Y3920919D01*
X17793797Y4052329D01*
X17793793Y4052336D01*
X17707547Y4167545D01*
X17707544Y4167548D01*
X17592335Y4253794D01*
X17592328Y4253798D01*
X17460401Y4303003D01*
X17404467Y4344874D01*
X17380050Y4410338D01*
X17394902Y4478611D01*
X17416053Y4506867D01*
X17538108Y4628922D01*
X17673600Y4822422D01*
X17773429Y5036508D01*
X17773432Y5036514D01*
X17830636Y5250000D01*
X16933686Y5250000D01*
X16959493Y5290156D01*
X17000000Y5428111D01*
X17000000Y5571889D01*
X16959493Y5709844D01*
X16933686Y5750000D01*
X17830636Y5750000D01*
X17830635Y5750001D01*
X17773432Y5963487D01*
X17773429Y5963493D01*
X17673600Y6177578D01*
X17673599Y6177580D01*
X17538113Y6371074D01*
X17538108Y6371080D01*
X17371082Y6538106D01*
X17177578Y6673601D01*
X16963492Y6773430D01*
X16963486Y6773433D01*
X16750000Y6830636D01*
X16750000Y5935502D01*
X16642315Y5984680D01*
X16535763Y6000000D01*
X16464237Y6000000D01*
X16357685Y5984680D01*
X16250000Y5935502D01*
X16250000Y6830636D01*
X16249999Y6830636D01*
X16036513Y6773433D01*
X16036507Y6773430D01*
X15822422Y6673601D01*
X15822420Y6673600D01*
X15628926Y6538114D01*
X15628920Y6538109D01*
X15461891Y6371080D01*
X15461886Y6371074D01*
X15326400Y6177580D01*
X15326399Y6177578D01*
X15226570Y5963493D01*
X15226567Y5963487D01*
X15169364Y5750001D01*
X15169364Y5750000D01*
X16066314Y5750000D01*
X16040507Y5709844D01*
X16000000Y5571889D01*
X16000000Y5428111D01*
X16040507Y5290156D01*
X16066314Y5250000D01*
X15169364Y5250000D01*
X15226567Y5036514D01*
X15226570Y5036508D01*
X15326399Y4822422D01*
X15461894Y4628918D01*
X15583946Y4506866D01*
X15617431Y4445543D01*
X15612447Y4375851D01*
X15570575Y4319918D01*
X15539598Y4303003D01*
X15407671Y4253798D01*
X15407664Y4253794D01*
X15292455Y4167548D01*
X15292452Y4167545D01*
X15206206Y4052336D01*
X15206202Y4052329D01*
X15155908Y3917483D01*
X15151510Y3876570D01*
X15149501Y3857877D01*
X15149500Y3857865D01*
X15149500Y2483412D01*
X15129815Y2416373D01*
X15077011Y2370618D01*
X15007853Y2360674D01*
X14944297Y2389699D01*
X14937819Y2395731D01*
X14898898Y2434652D01*
X14865413Y2495975D01*
X14863051Y2533139D01*
X14877650Y2700000D01*
X14875498Y2724592D01*
X14857817Y2926687D01*
X14857817Y2926692D01*
X14798921Y3146496D01*
X14702750Y3352734D01*
X14572229Y3539139D01*
X14572227Y3539142D01*
X14411323Y3700046D01*
X14224916Y3830568D01*
X14224914Y3830569D01*
X14018679Y3926739D01*
X14018670Y3926742D01*
X13798879Y3985634D01*
X13798875Y3985635D01*
X13798874Y3985635D01*
X13798873Y3985636D01*
X13798868Y3985636D01*
X13572184Y4005468D01*
X13572180Y4005468D01*
X13345495Y3985636D01*
X13345484Y3985634D01*
X13125693Y3926742D01*
X13125684Y3926739D01*
X12919449Y3830569D01*
X12919447Y3830568D01*
X12733040Y3700046D01*
X12572136Y3539142D01*
X12441614Y3352735D01*
X12441613Y3352733D01*
X12345443Y3146498D01*
X12345440Y3146489D01*
X12286548Y2926698D01*
X12286546Y2926687D01*
X12266714Y2700002D01*
X12266714Y2699997D01*
X12281311Y2533139D01*
X12267544Y2464640D01*
X12245464Y2434652D01*
X11597633Y1786819D01*
X11536310Y1753334D01*
X11509952Y1750500D01*
X7113154Y1750500D01*
X7046115Y1770185D01*
X7000360Y1822989D01*
X6990416Y1892147D01*
X7011579Y1945623D01*
X7050004Y2000500D01*
X7082750Y2047266D01*
X7178921Y2253504D01*
X7237817Y2473308D01*
X7257650Y2700000D01*
X7255498Y2724592D01*
X7237817Y2926687D01*
X7237817Y2926692D01*
X7178921Y3146496D01*
X7082750Y3352734D01*
X6952229Y3539139D01*
X6791321Y3700047D01*
X6776393Y3710500D01*
X6755557Y3725090D01*
X6711933Y3779668D01*
X6702682Y3826664D01*
X6702682Y4680340D01*
X6722367Y4747379D01*
X6755557Y4781914D01*
X6781321Y4799953D01*
X6942229Y4960861D01*
X7072750Y5147266D01*
X7168921Y5353504D01*
X7227817Y5573308D01*
X7245720Y5777941D01*
X7247650Y5799999D01*
X7247650Y5800002D01*
X7238519Y5904363D01*
X7227817Y6026692D01*
X7221571Y6050001D01*
X12283309Y6050001D01*
X12283310Y6050000D01*
X13246496Y6050000D01*
X13234541Y6038045D01*
X13177017Y5925148D01*
X13157196Y5800000D01*
X13177017Y5674852D01*
X13234541Y5561955D01*
X13246496Y5550000D01*
X12283310Y5550000D01*
X12335912Y5353683D01*
X12335916Y5353674D01*
X12432047Y5147518D01*
X12562524Y4961180D01*
X12723361Y4800343D01*
X12909699Y4669866D01*
X13115855Y4573735D01*
X13115864Y4573731D01*
X13312181Y4521128D01*
X13312182Y4521129D01*
X13312182Y5484314D01*
X13324137Y5472359D01*
X13437034Y5414835D01*
X13530701Y5400000D01*
X13593663Y5400000D01*
X13687330Y5414835D01*
X13800227Y5472359D01*
X13812182Y5484314D01*
X13812182Y4521128D01*
X14008499Y4573731D01*
X14008508Y4573735D01*
X14214664Y4669866D01*
X14401002Y4800343D01*
X14561839Y4961180D01*
X14692316Y5147518D01*
X14788447Y5353674D01*
X14788451Y5353683D01*
X14841054Y5550000D01*
X13877868Y5550000D01*
X13889823Y5561955D01*
X13947347Y5674852D01*
X13967168Y5800000D01*
X13947347Y5925148D01*
X13889823Y6038045D01*
X13877868Y6050000D01*
X14841054Y6050000D01*
X14841054Y6050001D01*
X14788451Y6246318D01*
X14788447Y6246327D01*
X14692316Y6452483D01*
X14561839Y6638821D01*
X14401002Y6799658D01*
X14214664Y6930135D01*
X14008510Y7026266D01*
X13812182Y7078873D01*
X13812182Y6115686D01*
X13800227Y6127641D01*
X13687330Y6185165D01*
X13593663Y6200000D01*
X13530701Y6200000D01*
X13437034Y6185165D01*
X13324137Y6127641D01*
X13312182Y6115686D01*
X13312182Y7078873D01*
X13115853Y7026266D01*
X12909699Y6930135D01*
X12723361Y6799658D01*
X12562524Y6638821D01*
X12432047Y6452483D01*
X12335916Y6246327D01*
X12335912Y6246318D01*
X12283309Y6050001D01*
X7221571Y6050001D01*
X7168921Y6246496D01*
X7072750Y6452734D01*
X6979347Y6586128D01*
X6942230Y6639138D01*
X6893666Y6687702D01*
X6781321Y6800047D01*
X6776555Y6803385D01*
X6745557Y6825090D01*
X6701933Y6879668D01*
X6692682Y6926664D01*
X6692682Y8865760D01*
X13019311Y8865760D01*
X13107585Y8811103D01*
X13297678Y8737461D01*
X13498072Y8700000D01*
X13701928Y8700000D01*
X13902322Y8737461D01*
X14092412Y8811101D01*
X14092416Y8811103D01*
X14180686Y8865759D01*
X14180686Y8865760D01*
X13600001Y9446447D01*
X13600000Y9446447D01*
X13019311Y8865760D01*
X6692682Y8865760D01*
X6692682Y9117771D01*
X6712367Y9184810D01*
X6728997Y9205448D01*
X6986731Y9463183D01*
X7048054Y9496667D01*
X7074412Y9499501D01*
X8254941Y9499501D01*
X8254942Y9499501D01*
X8314553Y9505909D01*
X8449401Y9556204D01*
X8564616Y9642454D01*
X8571420Y9651545D01*
X8627350Y9693416D01*
X8697041Y9698403D01*
X8741810Y9678812D01*
X8754582Y9669870D01*
X8754588Y9669866D01*
X8960743Y9573735D01*
X8960752Y9573731D01*
X9180459Y9514861D01*
X9180470Y9514859D01*
X9407068Y9495034D01*
X9407072Y9495034D01*
X9633669Y9514859D01*
X9633680Y9514861D01*
X9853387Y9573731D01*
X9853401Y9573736D01*
X10059548Y9669864D01*
X10132541Y9720976D01*
X10053517Y9800000D01*
X12495287Y9800000D01*
X12514096Y9597011D01*
X12514097Y9597008D01*
X12569883Y9400937D01*
X12569886Y9400931D01*
X12660751Y9218449D01*
X12662533Y9216089D01*
X13246446Y9800000D01*
X12662533Y10383913D01*
X12660755Y10381558D01*
X12660754Y10381557D01*
X12569886Y10199070D01*
X12569883Y10199064D01*
X12514097Y10002993D01*
X12514096Y10002990D01*
X12495287Y9800001D01*
X12495287Y9800000D01*
X10053517Y9800000D01*
X9451470Y10402047D01*
X9532218Y10414835D01*
X9645115Y10472359D01*
X9734711Y10561955D01*
X9792235Y10674852D01*
X9805023Y10755600D01*
X10486094Y10074529D01*
X10537206Y10147522D01*
X10633334Y10353669D01*
X10633339Y10353683D01*
X10692209Y10573390D01*
X10692211Y10573401D01*
X10712036Y10799998D01*
X10712036Y10800003D01*
X10692211Y11026600D01*
X10692209Y11026611D01*
X10633339Y11246318D01*
X10633334Y11246332D01*
X10537206Y11452479D01*
X10537202Y11452487D01*
X10486095Y11525474D01*
X9805023Y10844402D01*
X9792235Y10925148D01*
X9734711Y11038045D01*
X9645115Y11127641D01*
X9532218Y11185165D01*
X9451470Y11197954D01*
X10132542Y11879026D01*
X10059548Y11930137D01*
X9853401Y12026265D01*
X9853387Y12026270D01*
X9633680Y12085140D01*
X9633669Y12085142D01*
X9407072Y12104966D01*
X9407068Y12104966D01*
X9180470Y12085142D01*
X9180459Y12085140D01*
X8960752Y12026270D01*
X8960743Y12026266D01*
X8754582Y11930132D01*
X8754577Y11930129D01*
X8741806Y11921187D01*
X8675599Y11898862D01*
X8607833Y11915876D01*
X8571422Y11948454D01*
X8564616Y11957546D01*
X8564614Y11957547D01*
X8564614Y11957548D01*
X8449405Y12043794D01*
X8449398Y12043798D01*
X8314552Y12094092D01*
X8314553Y12094092D01*
X8254953Y12100499D01*
X8254951Y12100500D01*
X8254943Y12100500D01*
X8254935Y12100500D01*
X8196682Y12100500D01*
X8129643Y12120185D01*
X8083888Y12172989D01*
X8072682Y12224500D01*
X8072682Y13675501D01*
X8092367Y13742540D01*
X8145171Y13788295D01*
X8196682Y13799501D01*
X8322553Y13799501D01*
X8322554Y13799501D01*
X8382165Y13805909D01*
X8517013Y13856204D01*
X8632228Y13942454D01*
X8718478Y14057669D01*
X8729907Y14088313D01*
X8771776Y14144245D01*
X8837240Y14168664D01*
X8905513Y14153814D01*
X8922251Y14142833D01*
X9064734Y14031934D01*
X9064740Y14031930D01*
X9064743Y14031928D01*
X9276518Y13917321D01*
X9368816Y13885635D01*
X9504265Y13839135D01*
X9504267Y13839135D01*
X9504269Y13839134D01*
X9741783Y13799500D01*
X9741784Y13799500D01*
X9982580Y13799500D01*
X9982581Y13799500D01*
X10192778Y13834576D01*
X10262140Y13826194D01*
X10300866Y13799948D01*
X12463181Y11637634D01*
X12496666Y11576311D01*
X12499500Y11549953D01*
X12499500Y11152130D01*
X12499501Y11152124D01*
X12505908Y11092517D01*
X12556202Y10957672D01*
X12556206Y10957665D01*
X12642452Y10842456D01*
X12642455Y10842453D01*
X12757664Y10756207D01*
X12757671Y10756203D01*
X12892516Y10705909D01*
X12898339Y10705283D01*
X12952127Y10699500D01*
X13002692Y10699501D01*
X13069729Y10679818D01*
X13090372Y10663182D01*
X13600000Y10153553D01*
X13653553Y10100000D01*
X13572198Y10100000D01*
X13489750Y10084588D01*
X13394390Y10025543D01*
X13326799Y9936038D01*
X13296105Y9828160D01*
X13306454Y9716479D01*
X13356448Y9616078D01*
X13439334Y9540516D01*
X13543920Y9500000D01*
X13627802Y9500000D01*
X13710250Y9515412D01*
X13805610Y9574457D01*
X13873201Y9663962D01*
X13903895Y9771840D01*
X13895947Y9857606D01*
X14537465Y9216088D01*
X14539247Y9218447D01*
X14539248Y9218449D01*
X14630113Y9400931D01*
X14630114Y9400932D01*
X14640500Y9437436D01*
X14677778Y9496530D01*
X14741088Y9526089D01*
X14810327Y9516728D01*
X14847448Y9491185D01*
X15424267Y8914366D01*
X15436048Y8900734D01*
X15450390Y8881470D01*
X15488343Y8849624D01*
X15496319Y8842314D01*
X15500220Y8838412D01*
X15524543Y8819180D01*
X15527304Y8816931D01*
X15560971Y8788681D01*
X15584789Y8768695D01*
X15590818Y8764730D01*
X15590785Y8764681D01*
X15597143Y8760631D01*
X15597175Y8760681D01*
X15603317Y8756893D01*
X15603319Y8756892D01*
X15603323Y8756889D01*
X15661384Y8729815D01*
X15671315Y8725184D01*
X15674560Y8723612D01*
X15721576Y8700000D01*
X15741567Y8689960D01*
X15741569Y8689960D01*
X15748361Y8687487D01*
X15748340Y8687430D01*
X15755455Y8684957D01*
X15755475Y8685014D01*
X15762323Y8682746D01*
X15762328Y8682743D01*
X15835852Y8667563D01*
X15839286Y8666801D01*
X15884563Y8656069D01*
X15912274Y8649501D01*
X15912275Y8649501D01*
X15912279Y8649500D01*
X15912283Y8649500D01*
X15919452Y8648662D01*
X15919444Y8648603D01*
X15926945Y8647836D01*
X15926951Y8647895D01*
X15934140Y8647266D01*
X15934144Y8647267D01*
X15934145Y8647266D01*
X16009131Y8649448D01*
X16012738Y8649500D01*
X16225501Y8649500D01*
X16292540Y8629815D01*
X16338295Y8577011D01*
X16349501Y8525500D01*
X16349501Y8502124D01*
X16355908Y8442517D01*
X16406202Y8307672D01*
X16406206Y8307665D01*
X16492452Y8192456D01*
X16492455Y8192453D01*
X16607664Y8106207D01*
X16607671Y8106203D01*
X16742517Y8055909D01*
X16742516Y8055909D01*
X16749444Y8055165D01*
X16802127Y8049500D01*
X18597872Y8049501D01*
X18657483Y8055909D01*
X18792331Y8106204D01*
X18907546Y8192454D01*
X18993796Y8307669D01*
X19044091Y8442517D01*
X19050500Y8502127D01*
X19050499Y10297872D01*
X19044501Y10353669D01*
X19044091Y10357484D01*
X18993797Y10492329D01*
X18993793Y10492336D01*
X18907547Y10607545D01*
X18907544Y10607548D01*
X18792335Y10693794D01*
X18792328Y10693798D01*
X18657482Y10744092D01*
X18657483Y10744092D01*
X18597883Y10750499D01*
X18597881Y10750500D01*
X18597873Y10750500D01*
X18597864Y10750500D01*
X16802129Y10750500D01*
X16802123Y10750499D01*
X16742516Y10744092D01*
X16607671Y10693798D01*
X16607664Y10693794D01*
X16492455Y10607548D01*
X16492452Y10607545D01*
X16406206Y10492336D01*
X16406203Y10492331D01*
X16354872Y10354705D01*
X16313000Y10298772D01*
X16247536Y10274355D01*
X16179263Y10289207D01*
X16151009Y10310358D01*
X15503702Y10957665D01*
X14736818Y11724550D01*
X14703333Y11785873D01*
X14700499Y11812231D01*
X14700499Y12447871D01*
X14700498Y12447877D01*
X14694091Y12507484D01*
X14643797Y12642329D01*
X14643793Y12642336D01*
X14557547Y12757545D01*
X14557544Y12757548D01*
X14442335Y12843794D01*
X14442328Y12843798D01*
X14307482Y12894092D01*
X14307483Y12894092D01*
X14247883Y12900499D01*
X14247881Y12900500D01*
X14247873Y12900500D01*
X14247865Y12900500D01*
X13374411Y12900500D01*
X13307372Y12920185D01*
X13286730Y12936819D01*
X12608479Y13615070D01*
X12574994Y13676393D01*
X12579978Y13746085D01*
X12621850Y13802018D01*
X12675749Y13825060D01*
X12760095Y13839134D01*
X12987846Y13917321D01*
X13199621Y14031928D01*
X13389645Y14179829D01*
X13552733Y14356990D01*
X13641803Y14493323D01*
X13694950Y14538678D01*
X13745612Y14549500D01*
X14637770Y14549500D01*
X14704809Y14529815D01*
X14725451Y14513181D01*
X16373282Y12865350D01*
X16406767Y12804027D01*
X16409129Y12766863D01*
X16394532Y12600004D01*
X16394532Y12599999D01*
X16414364Y12373314D01*
X16414366Y12373303D01*
X16473258Y12153512D01*
X16473261Y12153503D01*
X16569431Y11947268D01*
X16569432Y11947266D01*
X16699954Y11760859D01*
X16860858Y11599955D01*
X16860861Y11599953D01*
X17047266Y11469432D01*
X17253504Y11373261D01*
X17473308Y11314365D01*
X17635230Y11300199D01*
X17699998Y11294532D01*
X17700000Y11294532D01*
X17700002Y11294532D01*
X17756673Y11299491D01*
X17926692Y11314365D01*
X18146496Y11373261D01*
X18352734Y11469432D01*
X18539139Y11599953D01*
X18700047Y11760861D01*
X18830568Y11947266D01*
X18926739Y12153504D01*
X18985635Y12373308D01*
X19005468Y12600000D01*
X18985635Y12826692D01*
X18926739Y13046496D01*
X18830568Y13252734D01*
X18700047Y13439139D01*
X18700045Y13439142D01*
X18539141Y13600046D01*
X18352734Y13730568D01*
X18352732Y13730569D01*
X18146497Y13826739D01*
X18146488Y13826742D01*
X17926697Y13885634D01*
X17926693Y13885635D01*
X17926692Y13885635D01*
X17926691Y13885636D01*
X17926686Y13885636D01*
X17700002Y13905468D01*
X17699997Y13905468D01*
X17533137Y13890871D01*
X17464637Y13904638D01*
X17434650Y13926718D01*
X15575729Y15785639D01*
X15563949Y15799270D01*
X15549610Y15818530D01*
X15511651Y15850381D01*
X15503686Y15857682D01*
X15499780Y15861589D01*
X15475443Y15880832D01*
X15472647Y15883110D01*
X15415214Y15931302D01*
X15409180Y15935271D01*
X15409212Y15935320D01*
X15402853Y15939372D01*
X15402822Y15939321D01*
X15396680Y15943109D01*
X15396678Y15943110D01*
X15396677Y15943111D01*
X15328688Y15974816D01*
X15325447Y15976385D01*
X15294530Y15991912D01*
X15258433Y16010040D01*
X15258431Y16010041D01*
X15258430Y16010041D01*
X15251645Y16012511D01*
X15251665Y16012567D01*
X15244549Y16015041D01*
X15244531Y16014985D01*
X15237674Y16017257D01*
X15164210Y16032427D01*
X15160693Y16033207D01*
X15087718Y16050501D01*
X15080547Y16051339D01*
X15080553Y16051399D01*
X15073055Y16052165D01*
X15073050Y16052105D01*
X15065860Y16052735D01*
X14990870Y16050552D01*
X14987263Y16050500D01*
X13745612Y16050500D01*
X13678573Y16070185D01*
X13641803Y16106678D01*
X13552733Y16243010D01*
X13389645Y16420171D01*
X13209098Y16560696D01*
X13199623Y16568071D01*
X12987847Y16682679D01*
X12987838Y16682682D01*
X12783555Y16752813D01*
X12736137Y16782413D01*
X11918552Y17599998D01*
X16395034Y17599998D01*
X16414858Y17373401D01*
X16414860Y17373390D01*
X16473730Y17153683D01*
X16473735Y17153669D01*
X16569863Y16947522D01*
X16620974Y16874528D01*
X17302046Y17555600D01*
X17314835Y17474852D01*
X17372359Y17361955D01*
X17461955Y17272359D01*
X17574852Y17214835D01*
X17655599Y17202047D01*
X16974526Y16520975D01*
X17047513Y16469868D01*
X17047521Y16469864D01*
X17253668Y16373736D01*
X17253682Y16373731D01*
X17473389Y16314861D01*
X17473400Y16314859D01*
X17699998Y16295034D01*
X17700002Y16295034D01*
X17926599Y16314859D01*
X17926610Y16314861D01*
X18146317Y16373731D01*
X18146331Y16373736D01*
X18352478Y16469864D01*
X18425471Y16520976D01*
X17744400Y17202047D01*
X17825148Y17214835D01*
X17938045Y17272359D01*
X18027641Y17361955D01*
X18085165Y17474852D01*
X18097953Y17555600D01*
X18779024Y16874529D01*
X18830136Y16947522D01*
X18926264Y17153669D01*
X18926269Y17153683D01*
X18985139Y17373390D01*
X18985141Y17373401D01*
X19004966Y17599998D01*
X19004966Y17600003D01*
X18985141Y17826600D01*
X18985139Y17826611D01*
X18926269Y18046318D01*
X18926264Y18046332D01*
X18830136Y18252479D01*
X18830132Y18252487D01*
X18779025Y18325474D01*
X18097953Y17644402D01*
X18085165Y17725148D01*
X18027641Y17838045D01*
X17938045Y17927641D01*
X17825148Y17985165D01*
X17744401Y17997954D01*
X18425472Y18679026D01*
X18352478Y18730137D01*
X18146331Y18826265D01*
X18146317Y18826270D01*
X17926610Y18885140D01*
X17926599Y18885142D01*
X17700002Y18904966D01*
X17699998Y18904966D01*
X17473400Y18885142D01*
X17473389Y18885140D01*
X17253682Y18826270D01*
X17253673Y18826266D01*
X17047516Y18730134D01*
X17047512Y18730132D01*
X16974526Y18679027D01*
X16974526Y18679026D01*
X17655599Y17997954D01*
X17574852Y17985165D01*
X17461955Y17927641D01*
X17372359Y17838045D01*
X17314835Y17725148D01*
X17302046Y17644402D01*
X16620974Y18325474D01*
X16620973Y18325474D01*
X16569868Y18252488D01*
X16569866Y18252484D01*
X16473734Y18046327D01*
X16473730Y18046318D01*
X16414860Y17826611D01*
X16414858Y17826600D01*
X16395034Y17600003D01*
X16395034Y17599998D01*
X11918552Y17599998D01*
X10932911Y18585639D01*
X10921131Y18599270D01*
X10906792Y18618530D01*
X10868833Y18650381D01*
X10860868Y18657682D01*
X10856962Y18661589D01*
X10832625Y18680832D01*
X10829829Y18683110D01*
X10772396Y18731302D01*
X10766362Y18735271D01*
X10766394Y18735320D01*
X10760035Y18739372D01*
X10760004Y18739321D01*
X10753862Y18743109D01*
X10753860Y18743110D01*
X10753859Y18743111D01*
X10685870Y18774816D01*
X10682629Y18776385D01*
X10651712Y18791912D01*
X10615615Y18810040D01*
X10615613Y18810041D01*
X10615612Y18810041D01*
X10608827Y18812511D01*
X10608847Y18812567D01*
X10601731Y18815041D01*
X10601713Y18814985D01*
X10594856Y18817257D01*
X10521392Y18832427D01*
X10517875Y18833207D01*
X10444900Y18850501D01*
X10437729Y18851339D01*
X10437735Y18851399D01*
X10430237Y18852165D01*
X10430232Y18852105D01*
X10423042Y18852735D01*
X10348052Y18850552D01*
X10344445Y18850500D01*
X4525887Y18850500D01*
X4507917Y18851809D01*
X4484154Y18855290D01*
X4439008Y18851339D01*
X4434812Y18850972D01*
X4424006Y18850500D01*
X4418466Y18850500D01*
X4387683Y18846902D01*
X4384098Y18846536D01*
X4309381Y18839999D01*
X4302314Y18838540D01*
X4302302Y18838596D01*
X4294945Y18836965D01*
X4294959Y18836908D01*
X4287922Y18835240D01*
X4217413Y18809579D01*
X4214012Y18808397D01*
X4142850Y18784816D01*
X4136308Y18781765D01*
X4136283Y18781817D01*
X4129490Y18778529D01*
X4129516Y18778478D01*
X4123068Y18775240D01*
X4060410Y18734030D01*
X4057373Y18732095D01*
X3993526Y18692712D01*
X3987859Y18688231D01*
X3987823Y18688277D01*
X3981980Y18683516D01*
X3982017Y18683472D01*
X3976492Y18678836D01*
X3976486Y18678831D01*
X3976486Y18678830D01*
X3952915Y18653847D01*
X3925030Y18624291D01*
X3922518Y18621706D01*
X2276540Y16975728D01*
X2262911Y16963949D01*
X2243651Y16949610D01*
X2211814Y16911669D01*
X2204528Y16903716D01*
X2200589Y16899776D01*
X2181358Y16875455D01*
X2179084Y16872663D01*
X2130876Y16815210D01*
X2126911Y16809181D01*
X2126864Y16809212D01*
X2122812Y16802853D01*
X2122861Y16802823D01*
X2119071Y16796679D01*
X2087374Y16728706D01*
X2085805Y16725464D01*
X2052139Y16658428D01*
X2049670Y16651643D01*
X2049614Y16651664D01*
X2047142Y16644550D01*
X2047197Y16644531D01*
X2044925Y16637675D01*
X2029755Y16564212D01*
X2028975Y16560696D01*
X2011681Y16487721D01*
X2010843Y16480546D01*
X2010783Y16480553D01*
X2010017Y16473055D01*
X2010077Y16473049D01*
X2009447Y16465860D01*
X2011630Y16390872D01*
X2011682Y16387265D01*
X2011682Y15827702D01*
X1991997Y15760663D01*
X1958807Y15726128D01*
X1890777Y15678493D01*
X1723687Y15511403D01*
X1588147Y15317831D01*
X1588146Y15317829D01*
X1488280Y15103665D01*
X1488276Y15103656D01*
X1427120Y14875414D01*
X1427118Y14875404D01*
X1406523Y14640001D01*
X1406523Y14640000D01*
X1427118Y14404597D01*
X1427120Y14404587D01*
X1488276Y14176345D01*
X1488278Y14176341D01*
X1488279Y14176337D01*
X1555617Y14031930D01*
X1588147Y13962170D01*
X1588149Y13962166D01*
X1685976Y13822456D01*
X1723683Y13768604D01*
X1723688Y13768598D01*
X1846000Y13646286D01*
X1879485Y13584963D01*
X1874501Y13515271D01*
X1832629Y13459338D01*
X1801653Y13442423D01*
X1670094Y13393354D01*
X1670088Y13393351D01*
X1554994Y13307191D01*
X1554991Y13307188D01*
X1468831Y13192094D01*
X1468827Y13192087D01*
X1418585Y13057380D01*
X1418583Y13057373D01*
X1412182Y12997845D01*
X1412182Y12350000D01*
X2328496Y12350000D01*
X2302689Y12309844D01*
X2262182Y12171889D01*
X2262182Y12028111D01*
X2302689Y11890156D01*
X2328496Y11850000D01*
X1412182Y11850000D01*
X1412182Y11202156D01*
X1418583Y11142628D01*
X1418585Y11142621D01*
X1468827Y11007914D01*
X1468831Y11007907D01*
X1554991Y10892813D01*
X1554994Y10892810D01*
X1670088Y10806650D01*
X1670095Y10806646D01*
X1804802Y10756404D01*
X1804809Y10756402D01*
X1864337Y10750001D01*
X1864354Y10750000D01*
X2512182Y10750000D01*
X2512182Y11664499D01*
X2619867Y11615320D01*
X2726419Y11600000D01*
X2797945Y11600000D01*
X2904497Y11615320D01*
X3012182Y11664499D01*
X3012182Y10750000D01*
X3660010Y10750000D01*
X3660026Y10750001D01*
X3719554Y10756402D01*
X3719561Y10756404D01*
X3854268Y10806646D01*
X3854271Y10806648D01*
X3950731Y10878858D01*
X3971599Y10886642D01*
X3973758Y10896566D01*
X3983324Y10911451D01*
X4055534Y11007911D01*
X4055536Y11007914D01*
X4105778Y11142621D01*
X4105780Y11142628D01*
X4112181Y11202156D01*
X4112182Y11202173D01*
X4112182Y11850000D01*
X3195868Y11850000D01*
X3221675Y11890156D01*
X3262182Y12028111D01*
X3262182Y12171889D01*
X3221675Y12309844D01*
X3195868Y12350000D01*
X4112182Y12350000D01*
X4112182Y12997828D01*
X4112181Y12997845D01*
X4105780Y13057373D01*
X4105778Y13057380D01*
X4055536Y13192087D01*
X4055532Y13192094D01*
X3969372Y13307188D01*
X3969369Y13307191D01*
X3854275Y13393351D01*
X3854270Y13393354D01*
X3722710Y13442423D01*
X3666777Y13484295D01*
X3642360Y13549759D01*
X3657212Y13618032D01*
X3678357Y13646280D01*
X3800677Y13768599D01*
X3936217Y13962170D01*
X4036085Y14176337D01*
X4097245Y14404592D01*
X4117841Y14640000D01*
X4097245Y14875408D01*
X4036085Y15103663D01*
X3936217Y15317829D01*
X3908451Y15357484D01*
X3800676Y15511403D01*
X3633586Y15678493D01*
X3565557Y15726128D01*
X3521933Y15780706D01*
X3512682Y15827702D01*
X3512682Y16037770D01*
X3532367Y16104809D01*
X3549001Y16125451D01*
X4736731Y17313181D01*
X4798054Y17346666D01*
X4824412Y17349500D01*
X5158452Y17349500D01*
X5225491Y17329815D01*
X5271246Y17277011D01*
X5281190Y17207853D01*
X5252165Y17144297D01*
X5246133Y17137819D01*
X4814358Y16706046D01*
X4800729Y16694267D01*
X4781469Y16679928D01*
X4749632Y16641987D01*
X4742346Y16634034D01*
X4738407Y16630094D01*
X4719176Y16605773D01*
X4716902Y16602981D01*
X4668694Y16545528D01*
X4664729Y16539499D01*
X4664682Y16539530D01*
X4660630Y16533171D01*
X4660679Y16533141D01*
X4656889Y16526997D01*
X4625192Y16459024D01*
X4623623Y16455782D01*
X4589957Y16388746D01*
X4587488Y16381961D01*
X4587432Y16381982D01*
X4584960Y16374868D01*
X4585015Y16374849D01*
X4582743Y16367993D01*
X4567573Y16294530D01*
X4566793Y16291014D01*
X4549499Y16218039D01*
X4548661Y16210864D01*
X4548601Y16210871D01*
X4547835Y16203373D01*
X4547895Y16203367D01*
X4547265Y16196178D01*
X4549448Y16121190D01*
X4549500Y16117583D01*
X4549500Y11180049D01*
X4529815Y11113010D01*
X4513181Y11092368D01*
X4170271Y10749458D01*
X4133246Y10729241D01*
X4124311Y10705283D01*
X4112724Y10691911D01*
X3087631Y9666819D01*
X3026308Y9633334D01*
X2999950Y9630500D01*
X1864311Y9630500D01*
X1864305Y9630499D01*
X1804698Y9624092D01*
X1669853Y9573798D01*
X1669846Y9573794D01*
X1554637Y9487548D01*
X1554634Y9487545D01*
X1468388Y9372336D01*
X1468384Y9372329D01*
X1418090Y9237483D01*
X1411683Y9177884D01*
X1411682Y9177865D01*
X1411682Y7382130D01*
X1411683Y7382124D01*
X1418090Y7322517D01*
X1468384Y7187672D01*
X1468388Y7187665D01*
X1554634Y7072456D01*
X1554637Y7072453D01*
X1669846Y6986207D01*
X1669853Y6986203D01*
X1801264Y6937190D01*
X1857198Y6895319D01*
X1881615Y6829855D01*
X1866764Y6761582D01*
X1845612Y6733327D01*
X1723687Y6611403D01*
X1588147Y6417831D01*
X1588146Y6417829D01*
X1488280Y6203665D01*
X1488276Y6203656D01*
X1427120Y5975414D01*
X1427118Y5975404D01*
X1406523Y5740001D01*
X1406523Y5740000D01*
X1427118Y5504597D01*
X1427120Y5504587D01*
X1488276Y5276345D01*
X1488278Y5276341D01*
X1488279Y5276337D01*
X1580576Y5078407D01*
X1588147Y5062170D01*
X1588149Y5062166D01*
X1723683Y4868605D01*
X1723688Y4868598D01*
X1890777Y4701508D01*
X1890780Y4701506D01*
X1890781Y4701505D01*
X1958805Y4653875D01*
X2002430Y4599299D01*
X2011682Y4552300D01*
X2011682Y4387702D01*
X1991997Y4320663D01*
X1958807Y4286128D01*
X1890777Y4238493D01*
X1723687Y4071403D01*
X1588147Y3877831D01*
X1588146Y3877829D01*
X1488280Y3663665D01*
X1488276Y3663656D01*
X1427120Y3435414D01*
X1427118Y3435404D01*
X1406523Y3200001D01*
X1406523Y3200000D01*
X500Y3200000D01*
X500Y19675500D01*
X20185Y19742539D01*
X72989Y19788294D01*
X124500Y19799500D01*
X40075500Y19799500D01*
X40142539Y19779815D01*
G37*
G04 #@! TD.AperFunction*
G04 #@! TD*
M02*
