M48
; DRILL file {KiCad 7.0.10} date Thu 01 Feb 2024 03:12:17 AM CET
; FORMAT={-:-/ absolute / metric / decimal}
; #@! TF.CreationDate,2024-02-01T03:12:17+01:00
; #@! TF.GenerationSoftware,Kicad,Pcbnew,7.0.10
; #@! TF.FileFunction,MixedPlating,1,2
FMAT,2
METRIC
; #@! TA.AperFunction,Plated,PTH,ComponentDrill
T1C0.600
; #@! TA.AperFunction,Plated,PTH,ComponentDrill
T2C0.750
; #@! TA.AperFunction,Plated,PTH,ComponentDrill
T3C0.800
; #@! TA.AperFunction,Plated,PTH,ComponentDrill
T4C1.000
; #@! TA.AperFunction,Plated,PTH,ComponentDrill
T5C1.100
%
G90
G05
T1
X13.6Y11.8
X13.6Y9.8
T2
X31.73Y15.67
X31.73Y9.9
X31.73Y4.3
X33.0Y16.94
X33.0Y14.4
X33.0Y11.17
X33.0Y8.63
X33.0Y5.57
X33.0Y3.03
T3
X5.942Y5.8
X5.952Y2.7
X7.407Y10.8
X9.407Y10.8
X13.562Y5.8
X13.572Y2.7
X17.7Y17.6
X17.7Y12.6
X21.2Y16.4
X21.2Y8.78
X24.3Y16.4
X24.3Y8.78
X27.3Y16.42
X27.3Y8.8
T4
X2.762Y14.64
X2.762Y12.1
X2.762Y8.28
X2.762Y5.74
X2.762Y3.2
X16.5Y5.5
X16.5Y2.96
X17.7Y9.4
X20.16Y5.5
X20.16Y2.96
X22.7Y5.5
X22.7Y2.96
X25.24Y5.5
X25.24Y2.96
X27.78Y5.5
X27.78Y2.96
X37.5Y14.4
X37.5Y9.9
X37.5Y5.565
X37.5Y3.025
T5
X7.322Y15.3
X9.862Y15.3
X12.402Y15.3
M30
